<svg width="24" height="24" viewBox="0 0 24 24" fill="none" xmlns="http://www.w3.org/2000/svg">
<mask id="path-1-inside-1_198_2881" fill="white">
<path fill-rule="evenodd" clip-rule="evenodd" d="M12 1.56494C6.201 1.56494 1.5 5.81794 1.5 11.0649C1.5 13.5919 2.598 15.8819 4.376 17.5849L3.508 21.8339C3.48952 21.9248 3.49667 22.0191 3.52867 22.1061C3.56066 22.1931 3.61624 22.2696 3.68918 22.3269C3.76212 22.3841 3.84956 22.42 3.94171 22.4304C4.03386 22.4409 4.1271 22.4255 4.211 22.3859L8.942 20.1529C9.93827 20.4267 10.9668 20.5652 12 20.5649C17.799 20.5649 22.5 16.3119 22.5 11.0649C22.5 5.81794 17.799 1.56494 12 1.56494Z"/>
</mask>
<path d="M4.376 17.5849L5.84565 17.8852L6.01131 17.0742L5.41357 16.5017L4.376 17.5849ZM3.508 21.8339L2.03835 21.5337L2.03809 21.535L3.508 21.8339ZM4.211 22.3859L4.85009 23.743L4.85126 23.7424L4.211 22.3859ZM8.942 20.1529L9.3394 18.7065L8.80393 18.5594L8.30174 18.7964L8.942 20.1529ZM12 20.5649V19.0649H11.9996L12 20.5649ZM12 0.0649414C5.51738 0.0649414 0 4.85177 0 11.0649H3C3 6.78411 6.88462 3.06494 12 3.06494V0.0649414ZM0 11.0649C0 14.044 1.29764 16.7135 3.33843 18.6682L5.41357 16.5017C3.89836 15.0504 3 13.1399 3 11.0649H0ZM2.90635 17.2847L2.03835 21.5337L4.97765 22.1342L5.84565 17.8852L2.90635 17.2847ZM2.03809 21.535C1.96416 21.8985 1.99278 22.2754 2.12077 22.6236L4.93657 21.5886C5.00056 21.7627 5.01487 21.9511 4.97791 22.1329L2.03809 21.535ZM2.12077 22.6236C2.24875 22.9718 2.47105 23.2775 2.76282 23.5066L4.61554 21.1471C4.76143 21.2616 4.87258 21.4145 4.93657 21.5886L2.12077 22.6236ZM2.76282 23.5066C3.0546 23.7357 3.40434 23.8792 3.77293 23.9209L4.11049 20.9399C4.29478 20.9608 4.46965 21.0325 4.61554 21.1471L2.76282 23.5066ZM3.77293 23.9209C4.14153 23.9626 4.51448 23.901 4.85009 23.743L3.57191 21.0289C3.73971 20.9499 3.92619 20.9191 4.11049 20.9399L3.77293 23.9209ZM4.85126 23.7424L9.58226 21.5094L8.30174 18.7964L3.57074 21.0294L4.85126 23.7424ZM8.5446 21.5993C9.67048 21.9087 10.8328 22.0653 12.0004 22.0649L11.9996 19.0649C11.1008 19.0652 10.2061 18.9447 9.3394 18.7065L8.5446 21.5993ZM12 22.0649C18.4826 22.0649 24 17.2781 24 11.0649H21C21 15.3458 17.1154 19.0649 12 19.0649V22.0649ZM24 11.0649C24 4.85177 18.4826 0.0649414 12 0.0649414V3.06494C17.1154 3.06494 21 6.78411 21 11.0649H24Z" fill="#616161" mask="url(#path-1-inside-1_198_2881)"/>
</svg>
