<svg width="24" height="24" viewBox="0 0 24 24" fill="none" xmlns="http://www.w3.org/2000/svg">
<circle cx="12" cy="12" r="12" fill="#5E6566"/>
<path fill-rule="evenodd" clip-rule="evenodd" d="M12.0002 15.9141C11.0846 15.913 10.2068 15.5424 9.55943 14.8836C8.91203 14.2248 8.54786 13.3316 8.54682 12.3999C8.54769 11.4681 8.91178 10.5747 9.5592 9.91578C10.2066 9.25683 11.0845 8.88616 12.0002 8.8851C12.9158 8.88616 13.7937 9.25683 14.4411 9.91578C15.0885 10.5747 15.4526 11.4681 15.4535 12.3999C15.4525 13.3316 15.0883 14.2248 14.4409 14.8836C13.7935 15.5424 12.9157 15.913 12.0002 15.9141ZM17.3408 7.11797H15.3962L14.6636 5.66502C14.5474 5.43501 14.3711 5.24204 14.1542 5.10732C13.9373 4.97259 13.688 4.90133 13.4339 4.90137H10.5289C10.2698 4.90134 10.0158 4.97543 9.79607 5.11519C9.57632 5.25496 9.3996 5.45476 9.28607 5.69182L8.60409 7.11797H6.65953C6.44163 7.11789 6.22584 7.16148 6.0245 7.24628C5.82316 7.33107 5.64021 7.4554 5.4861 7.61216C5.33199 7.76892 5.20974 7.95505 5.12634 8.1599C5.04293 8.36475 5 8.58431 5 8.80605V16.5772C5 16.799 5.04293 17.0185 5.12634 17.2234C5.20974 17.4282 5.33199 17.6144 5.4861 17.7711C5.64021 17.9279 5.82316 18.0522 6.0245 18.137C6.22584 18.2218 6.44163 18.2654 6.65953 18.2653H17.3408C17.5587 18.2654 17.7745 18.2218 17.9758 18.137C18.1772 18.0522 18.3601 17.9279 18.5142 17.7711C18.6683 17.6144 18.7906 17.4282 18.874 17.2234C18.9574 17.0185 19.0003 16.799 19.0003 16.5772V8.80605C19.0003 8.58431 18.9574 8.36475 18.874 8.1599C18.7906 7.95505 18.6683 7.76892 18.5142 7.61216C18.3601 7.4554 18.1772 7.33107 17.9758 7.24628C17.7745 7.16148 17.5587 7.11789 17.3408 7.11797Z" fill="white"/>
<path fill-rule="evenodd" clip-rule="evenodd" d="M12.0005 10.1514C11.4149 10.1521 10.8534 10.3892 10.4394 10.8106C10.0253 11.2321 9.79251 11.8035 9.79199 12.3995C9.79234 12.9955 10.0251 13.567 10.4392 13.9885C10.8533 14.41 11.4148 14.647 12.0005 14.6475C12.5862 14.647 13.1478 14.41 13.5618 13.9885C13.9759 13.567 14.2087 12.9955 14.2091 12.3995C14.2085 11.8035 13.9757 11.2321 13.5617 10.8106C13.1476 10.3892 12.5862 10.1521 12.0005 10.1514Z" fill="white"/>
</svg>
