<svg width="48" height="48" viewBox="0 0 48 48" fill="none" xmlns="http://www.w3.org/2000/svg">
<circle cx="24" cy="24" r="24" fill="#616161"/>
<path d="M17.7443 30.52V28.28H12.7043V27.128L18.2563 19.368H19.6003V26.824H21.2163V28.28H19.6003V30.52H17.7443ZM14.8483 26.824H17.7603V22.696L14.8483 26.824ZM22.9269 23.8V21.912H24.8789V23.8H22.9269ZM22.9269 29.592V27.704H24.8789V29.592H22.9269ZM29.8776 30.504C29.2482 30.504 28.6349 30.4293 28.0376 30.28C27.4509 30.1307 26.9922 29.9493 26.6616 29.736L26.9816 28.312C27.2589 28.4827 27.6482 28.632 28.1496 28.76C28.6616 28.8773 29.1256 28.936 29.5416 28.936C30.2882 28.936 30.8642 28.7813 31.2696 28.472C31.6749 28.1627 31.8776 27.704 31.8776 27.096C31.8776 26.008 31.1202 25.4533 29.6056 25.432L28.4696 25.4V23.976L29.4776 23.96C30.1176 23.9387 30.6296 23.7893 31.0136 23.512C31.3976 23.224 31.5896 22.8293 31.5896 22.328C31.5896 21.3253 30.9389 20.824 29.6376 20.824C28.9122 20.824 28.1336 21.016 27.3016 21.4L27.0776 19.944C27.4189 19.752 27.8829 19.592 28.4696 19.464C29.0562 19.3253 29.6162 19.256 30.1496 19.256C31.1842 19.256 32.0109 19.496 32.6296 19.976C33.2482 20.4453 33.5576 21.112 33.5576 21.976C33.5576 23.224 32.9016 24.0773 31.5896 24.536C33.1469 24.8453 33.9256 25.7413 33.9256 27.224C33.9256 28.2373 33.5629 29.0373 32.8376 29.624C32.1122 30.2107 31.1256 30.504 29.8776 30.504Z" fill="#ADADAD"/>
</svg>
