<svg width="24" height="24" viewBox="0 0 24 24" fill="none" xmlns="http://www.w3.org/2000/svg">
<path fill-rule="evenodd" clip-rule="evenodd" d="M9.29001 19C8.96115 19 8.63229 18.8832 8.37492 18.6627C8.1348 18.4439 8 18.1477 8 17.839C8 17.5302 8.1348 17.234 8.37492 17.0152L13.9084 11.9949L8.37492 6.98763C8.13481 6.76883 8 6.47265 8 6.16389C8 5.85513 8.13481 5.55895 8.37492 5.34015C8.61609 5.1223 8.94255 5 9.28287 5C9.62318 5 9.94964 5.1223 10.1908 5.34015L16.6251 11.1777C16.8652 11.3965 17 11.6927 17 12.0014C17 12.3102 16.8652 12.6064 16.6251 12.8252L10.1908 18.6627C9.94774 18.8832 9.61887 19 9.29001 19Z" fill="#272B2B"/>
</svg>
