<svg width="129" height="135" viewBox="0 0 129 135" fill="none" xmlns="http://www.w3.org/2000/svg">
<path fill-rule="evenodd" clip-rule="evenodd" d="M3.97124 33.7229C1.72035 32.4233 0.333738 30.0216 0.33374 27.4225L0.333768 0.725586L47.9665 27.846C50.2387 29.1397 51.6419 31.5533 51.6419 34.1681V61.2455L3.97124 33.7229ZM25.0416 80.0735C25.0416 77.4112 26.4958 74.9616 28.833 73.6868L51.6419 61.2455L51.6417 135L28.833 122.559C26.4958 121.284 25.0416 118.835 25.0416 116.173V80.0735ZM106.637 33.8722C104.364 32.4856 101.516 32.451 99.2101 33.7822L51.6419 61.2455L73.8207 74.778C76.0933 76.1646 78.9418 76.1992 81.2474 74.868L128.815 47.4046L106.637 33.8722Z" fill="#51D6E8"/>
</svg>
