<svg width="24" height="24" viewBox="0 0 24 24" fill="none" xmlns="http://www.w3.org/2000/svg">
<path d="M20.426 13.5757C19.9438 13.207 19.7101 12.607 19.7101 12V12V12C19.7101 11.396 19.9375 10.792 20.4191 10.4274L21.809 9.375C21.9027 9.2999 21.9667 9.19552 21.9901 9.07966C22.0136 8.96379 21.995 8.84361 21.9375 8.73959L19.8815 5.28125C19.8209 5.17663 19.7243 5.09623 19.6087 5.05428C19.493 5.01234 19.3659 5.01156 19.2497 5.05209L17.5989 5.6971C17.0334 5.91803 16.4058 5.82168 15.8793 5.5194V5.5194C15.3309 5.20451 14.8993 4.68708 14.8082 4.06128L14.57 2.42709C14.5511 2.30785 14.4888 2.19918 14.3945 2.12081C14.3002 2.04245 14.1801 1.99958 14.056 2H9.94396C9.68696 2 9.48349 2.17709 9.44066 2.42709L9.2028 4.05958C9.11146 4.68643 8.67455 5.20803 8.12569 5.5243V5.5243C7.60049 5.82694 6.97821 5.9184 6.41363 5.6978L4.76103 5.05209C4.52544 4.96875 4.25773 5.05209 4.12922 5.28125L2.08389 8.73959C1.95539 8.95834 1.99823 9.22917 2.2124 9.375L3.60088 10.4262C4.08337 10.7915 4.28985 11.3948 4.28985 12V12V12C4.28985 12.604 4.06253 13.208 3.58096 13.5726L2.19098 14.625C2.09731 14.7001 2.0333 14.8045 2.00987 14.9203C1.98644 15.0362 2.00503 15.1564 2.06248 15.2604L4.11852 18.7188C4.24702 18.9479 4.51473 19.0208 4.75032 18.9479L6.40112 18.3029C6.96657 18.082 7.59419 18.1783 8.12067 18.4806V18.4806C8.6691 18.7955 9.10066 19.3129 9.19184 19.9387L9.42995 21.5729C9.48349 21.8229 9.68696 22 9.94396 22H14.056C14.313 22 14.5272 21.8229 14.5593 21.5729L14.7982 19.9333C14.8889 19.3108 15.3215 18.7952 15.8678 18.4834V18.4834C16.3975 18.1812 17.0256 18.0831 17.5936 18.305L19.239 18.9479C19.4746 19.0313 19.7423 18.9479 19.8708 18.7188L21.9268 15.2604C22.0553 15.0313 22.0018 14.7708 21.7983 14.625L20.426 13.5757ZM12 15.75C9.87971 15.75 8.14493 14.0625 8.14493 12C8.14493 9.9375 9.87971 8.25 12 8.25C14.1203 8.25 15.8551 9.9375 15.8551 12C15.8551 14.0625 14.1203 15.75 12 15.75Z" stroke="#272B2B"/>
</svg>
