<svg width="24" height="24" viewBox="0 0 24 24" fill="none" xmlns="http://www.w3.org/2000/svg">
<g clip-path="url(#clip0_834_6518)">
<path fill-rule="evenodd" clip-rule="evenodd" d="M2.25 10.1714C2.25 5.79655 5.79654 2.25 10.1714 2.25C10.5856 2.25 10.9214 2.58579 10.9214 3C10.9214 3.41421 10.5856 3.75 10.1714 3.75C6.62497 3.75 3.75 6.62497 3.75 10.1714V19C3.75 19.6904 4.30964 20.25 5 20.25H13.8286C17.375 20.25 20.25 17.375 20.25 13.8286C20.25 13.4144 20.5858 13.0786 21 13.0786C21.4142 13.0786 21.75 13.4144 21.75 13.8286C21.75 18.2035 18.2035 21.75 13.8286 21.75H5C3.48122 21.75 2.25 20.5188 2.25 19V10.1714Z" fill="#616161"/>
<path fill-rule="evenodd" clip-rule="evenodd" d="M21.0292 2.32014C21.4434 2.32161 21.778 2.65858 21.7765 3.07279L21.7526 9.82275C21.7512 10.237 21.4142 10.5716 21 10.5701C20.5858 10.5686 20.2512 10.2317 20.2526 9.81744L20.2701 4.87813L12.5558 12.516C12.2618 12.8071 11.7875 12.8051 11.4959 12.5115C11.2038 12.2173 11.2058 11.7418 11.5004 11.4501L19.2132 3.81372L14.2739 3.79624C13.8597 3.79477 13.5251 3.4578 13.5266 3.04359C13.528 2.62938 13.865 2.29478 14.2792 2.29625L21.0292 2.32014Z" fill="#616161"/>
</g>
<defs>
<clipPath id="clip0_834_6518">
<rect width="24" height="24" fill="white"/>
</clipPath>
</defs>
</svg>
