<svg width="18" height="18" viewBox="0 0 18 18" fill="none" xmlns="http://www.w3.org/2000/svg">
<path fill-rule="evenodd" clip-rule="evenodd" d="M14.0204 14.9042C12.668 16.0553 10.9151 16.75 9 16.75C4.71979 16.75 1.25 13.2802 1.25 9C1.25 7.08486 1.94466 5.33197 3.09576 3.97955L14.0204 14.9042ZM14.9043 14.0203L3.97966 3.09568C5.33206 1.94463 7.08491 1.25 9 1.25C13.2802 1.25 16.75 4.71979 16.75 9C16.75 10.9151 16.0554 12.6679 14.9043 14.0203ZM18 9C18 13.9706 13.9706 18 9 18C4.02944 18 0 13.9706 0 9C0 4.02944 4.02944 0 9 0C13.9706 0 18 4.02944 18 9Z" fill="black"/>
</svg>
