<svg width="108" height="108" viewBox="0 0 108 108" fill="none" xmlns="http://www.w3.org/2000/svg">
<circle cx="54" cy="54" r="54" fill="white"/>
<circle cx="54" cy="54" r="50" fill="#A0ACAD"/>
<path fill-rule="evenodd" clip-rule="evenodd" d="M20.1104 90.7627C21.503 73.5415 35.9202 60 53.5001 60C71.3675 60 85.9678 73.9879 86.9477 91.6103C78.1493 99.3241 66.6208 104 54.0003 104C40.924 104 29.02 98.9803 20.1104 90.7627Z" fill="#F0F4F5"/>
<circle cx="54" cy="49" r="26" fill="#F0F4F5"/>
<path d="M48.5 45C48.5 45.4546 48.3612 45.8468 48.1607 46.1142C47.9602 46.3814 47.7215 46.5 47.5 46.5C47.2785 46.5 47.0398 46.3814 46.8393 46.1142C46.6388 45.8468 46.5 45.4546 46.5 45C46.5 44.5454 46.6388 44.1532 46.8393 43.8858C47.0398 43.6186 47.2785 43.5 47.5 43.5C47.7215 43.5 47.9602 43.6186 48.1607 43.8858C48.3612 44.1532 48.5 44.5454 48.5 45Z" fill="#A0ACAD" stroke="#A0ACAD"/>
<path d="M61.5 45C61.5 45.4546 61.3612 45.8468 61.1607 46.1142C60.9602 46.3814 60.7215 46.5 60.5 46.5C60.2785 46.5 60.0398 46.3814 59.8393 46.1142C59.6388 45.8468 59.5 45.4546 59.5 45C59.5 44.5454 59.6388 44.1532 59.8393 43.8858C60.0398 43.6186 60.2785 43.5 60.5 43.5C60.7215 43.5 60.9602 43.6186 61.1607 43.8858C61.3612 44.1532 61.5 44.5454 61.5 45Z" fill="#A0ACAD" stroke="#A0ACAD"/>
<path fill-rule="evenodd" clip-rule="evenodd" d="M44.6719 53.3257C45.0444 53.1445 45.4933 53.2996 45.6745 53.6721C49.0528 60.6164 58.9473 60.6164 62.3256 53.6721C62.5068 53.2996 62.9557 53.1445 63.3281 53.3257C63.7006 53.5069 63.8557 53.9558 63.6745 54.3283C59.7488 62.3976 48.2513 62.3976 44.3256 54.3283C44.1444 53.9558 44.2995 53.5069 44.6719 53.3257Z" fill="#A0ACAD"/>
</svg>
