<svg width="54" height="54" viewBox="0 0 54 54" fill="none" xmlns="http://www.w3.org/2000/svg">
<path d="M54 27C54 41.9117 41.9117 54 27 54C12.0883 54 0 41.9117 0 27C0 12.0883 12.0883 0 27 0C41.9117 0 54 12.0883 54 27Z" fill="#A0ACAD"/>
<path fill-rule="evenodd" clip-rule="evenodd" d="M8.69971 46.8518C9.45187 37.5525 17.2371 30.2402 26.7302 30.2402C36.3784 30.2402 44.2626 37.7935 44.7919 47.3095C40.0407 51.475 33.8153 53.9999 27.0002 53.9999C19.939 53.9999 13.5109 51.2893 8.69971 46.8518Z" fill="#F0F4F5"/>
<circle cx="27" cy="24.2998" r="14.04" fill="#F0F4F5"/>
<mask id="path-4-inside-1_341_3499" fill="white">
<ellipse cx="23.4899" cy="22.1405" rx="0.81" ry="1.08"/>
</mask>
<ellipse cx="23.4899" cy="22.1405" rx="0.81" ry="1.08" fill="#A0ACAD"/>
<path d="M23.3181 22.1405C23.3181 22.2469 23.2846 22.3054 23.2772 22.3151C23.2749 22.3183 23.2869 22.3008 23.3229 22.2805C23.3617 22.2586 23.42 22.2387 23.4899 22.2387V24.2024C24.0919 24.2024 24.5621 23.8747 24.8481 23.4933C25.134 23.1122 25.2817 22.6307 25.2817 22.1405H23.3181ZM23.4899 22.2387C23.5598 22.2387 23.6182 22.2586 23.6569 22.2805C23.6929 22.3008 23.705 22.3183 23.7026 22.3151C23.6953 22.3054 23.6617 22.2469 23.6617 22.1405H21.6981C21.6981 22.6307 21.8459 23.1122 22.1317 23.4933C22.4178 23.8747 22.8879 24.2024 23.4899 24.2024V22.2387ZM23.6617 22.1405C23.6617 22.0342 23.6953 21.9757 23.7026 21.966C23.705 21.9628 23.6929 21.9803 23.6569 22.0006C23.6182 22.0225 23.5598 22.0424 23.4899 22.0424V20.0787C22.8879 20.0787 22.4178 20.4064 22.1317 20.7878C21.8459 21.1689 21.6981 21.6504 21.6981 22.1405H23.6617ZM23.4899 22.0424C23.42 22.0424 23.3617 22.0225 23.3229 22.0006C23.2869 21.9803 23.2749 21.9628 23.2772 21.966C23.2846 21.9757 23.3181 22.0342 23.3181 22.1405H25.2817C25.2817 21.6504 25.134 21.1689 24.8481 20.7878C24.5621 20.4064 24.0919 20.0787 23.4899 20.0787V22.0424Z" fill="#A0ACAD" mask="url(#path-4-inside-1_341_3499)"/>
<mask id="path-6-inside-2_341_3499" fill="white">
<ellipse cx="30.51" cy="22.1405" rx="0.81" ry="1.08"/>
</mask>
<ellipse cx="30.51" cy="22.1405" rx="0.81" ry="1.08" fill="#A0ACAD"/>
<path d="M30.3381 22.1405C30.3381 22.2469 30.3046 22.3054 30.2973 22.3151C30.2949 22.3183 30.307 22.3008 30.3429 22.2805C30.3817 22.2586 30.44 22.2387 30.51 22.2387V24.2024C31.1119 24.2024 31.5821 23.8747 31.8682 23.4933C32.154 23.1122 32.3018 22.6307 32.3018 22.1405H30.3381ZM30.51 22.2387C30.5799 22.2387 30.6382 22.2586 30.677 22.2805C30.7129 22.3008 30.725 22.3183 30.7226 22.3151C30.7153 22.3054 30.6818 22.2469 30.6818 22.1405H28.7181C28.7181 22.6307 28.8659 23.1122 29.1517 23.4933C29.4378 23.8747 29.908 24.2024 30.51 24.2024V22.2387ZM30.6818 22.1405C30.6818 22.0342 30.7153 21.9757 30.7226 21.966C30.725 21.9628 30.7129 21.9803 30.677 22.0006C30.6382 22.0225 30.5799 22.0424 30.51 22.0424V20.0787C29.908 20.0787 29.4378 20.4064 29.1517 20.7878C28.8659 21.1689 28.7181 21.6504 28.7181 22.1405H30.6818ZM30.51 22.0424C30.44 22.0424 30.3817 22.0225 30.3429 22.0006C30.307 21.9803 30.2949 21.9628 30.2973 21.966C30.3046 21.9757 30.3381 22.0342 30.3381 22.1405H32.3018C32.3018 21.6504 32.154 21.1689 31.8682 20.7878C31.5821 20.4064 31.1119 20.0787 30.51 20.0787V22.0424Z" fill="#A0ACAD" mask="url(#path-6-inside-2_341_3499)"/>
<path d="M22.1401 27V27C24.1122 31.0537 29.8881 31.0537 31.8601 27V27" stroke="#A0ACAD" stroke-width="0.736364" stroke-linecap="round"/>
</svg>
