<svg width="24" height="24" viewBox="0 0 24 24" fill="none" xmlns="http://www.w3.org/2000/svg">
<path fill-rule="evenodd" clip-rule="evenodd" d="M5.35363 4.64645C5.15837 4.45118 4.84178 4.45118 4.64652 4.64645C4.45126 4.84171 4.45126 5.15829 4.64652 5.35355L11.293 12L4.64645 18.6465C4.45118 18.8418 4.45118 19.1584 4.64645 19.3536C4.84171 19.5489 5.15829 19.5489 5.35355 19.3536L12.0001 12.7071L18.6465 19.3536C18.8418 19.5488 19.1584 19.5488 19.3536 19.3536C19.5489 19.1583 19.5489 18.8417 19.3536 18.6464L12.7072 12L19.3536 5.35363C19.5488 5.15837 19.5488 4.84178 19.3536 4.64652C19.1583 4.45126 18.8417 4.45126 18.6464 4.64652L12.0001 11.2929L5.35363 4.64645Z" fill="white"/>
</svg>
