<svg width="24" height="24" viewBox="0 0 24 24" fill="none" xmlns="http://www.w3.org/2000/svg">
<path fill-rule="evenodd" clip-rule="evenodd" d="M10.9042 21.5267C11.5702 21.9667 12.4292 21.9667 13.0942 21.5267C15.2092 20.1307 19.8142 16.7937 21.7982 13.0597C24.4132 8.1337 21.3422 3.2207 17.2822 3.2207C14.9682 3.2207 13.5762 4.4297 12.8062 5.4687C12.7138 5.59596 12.5925 5.69952 12.4523 5.77093C12.3121 5.84233 12.1571 5.87956 11.9997 5.87956C11.8424 5.87956 11.6874 5.84233 11.5472 5.77093C11.407 5.69952 11.2857 5.59596 11.1932 5.4687C10.4232 4.4297 9.03124 3.2207 6.71724 3.2207C2.65724 3.2207 -0.413756 8.1337 2.20224 13.0597C4.18424 16.7937 8.79124 20.1307 10.9042 21.5267Z" fill="#51D6E8"/>
</svg>
