<svg width="24" height="24" viewBox="0 0 24 24" fill="none" xmlns="http://www.w3.org/2000/svg">
<path fill-rule="evenodd" clip-rule="evenodd" d="M14.71 5C15.0388 5 15.3677 5.11675 15.6251 5.33728C15.8652 5.55608 16 5.85227 16 6.16102C16 6.46978 15.8652 6.76596 15.6251 6.98477L10.0916 12.0051L15.6251 17.0124C15.8652 17.2312 16 17.5274 16 17.8361C16 18.1449 15.8652 18.4411 15.6251 18.6599C15.3839 18.8777 15.0575 19 14.7171 19C14.3768 19 14.0504 18.8777 13.8092 18.6599L7.37492 12.8223C7.13481 12.6035 7 12.3073 7 11.9986C7 11.6898 7.13481 11.3936 7.37492 11.1748L13.8092 5.33728C14.0523 5.11675 14.3811 5 14.71 5Z" fill="#272B2B"/>
</svg>
