<svg width="24" height="24" viewBox="0 0 24 24" fill="none" xmlns="http://www.w3.org/2000/svg">
<path fill-rule="evenodd" clip-rule="evenodd" d="M19.1205 10.2424V15.0909L20.6512 16.3418C21.3987 16.9527 20.8647 18 19.8087 18H4.18233C3.12634 18 2.60427 16.9527 3.35177 16.3418L4.88238 15.0909V10.2424C4.88238 7.25576 6.8164 4.77333 10.2217 4.11394V3.45455C10.2217 2.6497 11.0167 2 12.0015 2C12.9863 2 13.7812 2.6497 13.7812 3.45455V4.11394C17.1747 4.77333 19.1205 7.26545 19.1205 10.2424ZM16 19C16 20.65 14.2 22 12 22C9.78 22 8 20.65 8 19H16Z" fill="#262626"/>
</svg>
